<svg width="1280" height="640" viewBox="0 0 1280 640" fill="none" xmlns="http://www.w3.org/2000/svg">
<rect width="1280" height="640" rx="32" fill="#FAFAFA"/>
<path d="M224.92 435.624V396.424H242C246.629 396.424 250.307 397.618 253.032 400.008C255.757 402.397 257.12 405.402 257.12 409.024C257.12 411.898 256.224 414.437 254.432 416.64C252.677 418.805 250.213 420.28 247.04 421.064L256.84 435.624H249.28L240.04 421.624H231.36V435.624H224.92ZM231.36 415.464H242C247.6 415.464 250.4 413.317 250.4 409.024C250.4 404.73 247.6 402.584 242 402.584H231.36V415.464ZM262.49 431.928C259.69 429.053 258.29 425.525 258.29 421.344C258.29 417.162 259.69 413.653 262.49 410.816C265.328 407.941 268.781 406.504 272.85 406.504C276.92 406.504 280.354 407.941 283.154 410.816C285.992 413.653 287.41 417.162 287.41 421.344V423.304H264.17C264.618 425.656 265.645 427.504 267.25 428.848C268.856 430.192 270.722 430.864 272.85 430.864C275.464 430.864 277.554 430.21 279.122 428.904C279.832 428.381 280.448 427.728 280.97 426.944H287.13C286.346 428.773 285.357 430.322 284.162 431.592C281.101 434.653 277.33 436.184 272.85 436.184C268.781 436.184 265.328 434.765 262.49 431.928ZM264.45 418.544H281.25C280.914 416.677 280.018 415.09 278.562 413.784C277.144 412.477 275.24 411.824 272.85 411.824C270.834 411.824 269.042 412.44 267.474 413.672C265.906 414.866 264.898 416.49 264.45 418.544ZM289.095 423.864H295.815C296.076 425.17 296.617 426.346 297.439 427.392C299.231 429.706 301.956 430.864 305.615 430.864C308.564 430.864 310.748 430.341 312.167 429.296C313.585 428.213 314.295 426.776 314.295 424.984C314.295 423.565 313.641 422.426 312.335 421.568C311.065 420.709 309.236 419.962 306.847 419.328C302.18 418.133 299.044 417.144 297.439 416.36C292.996 414.306 290.775 411.208 290.775 407.064C290.775 403.89 292.119 401.146 294.807 398.832C297.495 396.48 301.004 395.304 305.335 395.304C311.084 395.304 315.359 397.226 318.159 401.072C319.353 402.714 320.212 404.618 320.735 406.784H314.015C313.753 405.738 313.287 404.805 312.615 403.984C311.047 402.117 308.62 401.184 305.335 401.184C302.796 401.184 300.855 401.706 299.511 402.752C298.167 403.797 297.495 405.141 297.495 406.784C297.495 409.248 299.977 411.152 304.943 412.496C305.353 412.608 306.137 412.832 307.295 413.168C308.452 413.466 309.273 413.709 309.759 413.896C310.281 414.045 311.065 414.306 312.111 414.68C313.193 415.016 313.996 415.333 314.519 415.632C315.041 415.93 315.713 416.322 316.535 416.808C317.356 417.256 317.972 417.741 318.383 418.264C318.831 418.749 319.279 419.309 319.727 419.944C320.212 420.578 320.548 421.306 320.735 422.128C320.921 422.912 321.015 423.77 321.015 424.704C321.015 428.064 319.615 430.92 316.815 433.272C314.052 435.586 310.319 436.744 305.615 436.744C299.343 436.744 294.732 434.597 291.783 430.304C290.439 428.474 289.543 426.328 289.095 423.864ZM327.036 431.984C324.311 429.184 322.948 425.637 322.948 421.344C322.948 417.05 324.311 413.504 327.036 410.704C329.762 407.904 333.159 406.504 337.228 406.504C341.783 406.504 345.498 408.24 348.372 411.712C349.604 413.317 350.463 415.034 350.948 416.864H344.788C344.527 415.93 344.042 415.09 343.332 414.344C341.876 412.664 339.842 411.824 337.228 411.824C334.914 411.824 332.972 412.701 331.404 414.456C329.874 416.21 329.108 418.506 329.108 421.344C329.108 424.181 329.874 426.477 331.404 428.232C332.972 429.986 334.914 430.864 337.228 430.864C339.916 430.864 342.026 430.024 343.556 428.344C344.228 427.597 344.732 426.757 345.068 425.824H350.948C350.463 427.728 349.604 429.464 348.372 431.032C345.535 434.466 341.82 436.184 337.228 436.184C333.159 436.184 329.762 434.784 327.036 431.984ZM353.731 435.624V407.064H359.611V411.264H359.891C360.302 410.48 360.899 409.733 361.683 409.024C363.4 407.53 365.416 406.784 367.731 406.784H371.091V412.384H367.451C365.174 412.384 363.288 413.112 361.795 414.568C360.339 415.986 359.611 417.872 359.611 420.224V435.624H353.731ZM374.039 401.856C373.367 401.184 373.031 400.362 373.031 399.392C373.031 398.421 373.367 397.6 374.039 396.928C374.711 396.218 375.533 395.864 376.503 395.864C377.474 395.864 378.295 396.218 378.967 396.928C379.677 397.6 380.031 398.421 380.031 399.392C380.031 400.362 379.677 401.184 378.967 401.856C378.295 402.528 377.474 402.864 376.503 402.864C375.533 402.864 374.711 402.528 374.039 401.856ZM373.591 435.624V407.064H379.471V435.624H373.591ZM384.209 446.264V407.064H390.089V410.704H390.369C391.041 409.92 391.807 409.229 392.665 408.632C394.681 407.213 396.903 406.504 399.329 406.504C403.175 406.504 406.367 407.885 408.905 410.648C411.481 413.373 412.769 416.938 412.769 421.344C412.769 425.749 411.481 429.333 408.905 432.096C406.367 434.821 403.175 436.184 399.329 436.184C396.865 436.184 394.644 435.493 392.665 434.112C391.769 433.477 391.004 432.768 390.369 431.984H390.089V446.264H384.209ZM392.273 414.344C390.817 415.986 390.089 418.32 390.089 421.344C390.089 424.368 390.817 426.72 392.273 428.4C393.767 430.042 395.745 430.864 398.209 430.864C400.823 430.864 402.876 430.042 404.369 428.4C405.863 426.757 406.609 424.405 406.609 421.344C406.609 418.282 405.863 415.93 404.369 414.288C402.876 412.645 400.823 411.824 398.209 411.824C395.745 411.824 393.767 412.664 392.273 414.344ZM413.587 412.384V407.064H416.947V400.904H422.827V407.064H431.507V412.384H422.827V430.304H431.788V435.624H416.947V412.384H413.587ZM448.603 435.624V396.424H454.483V410.704H454.763C455.435 409.92 456.2 409.229 457.059 408.632C459.075 407.213 461.296 406.504 463.723 406.504C467.568 406.504 470.76 407.885 473.299 410.648C475.875 413.373 477.163 416.938 477.163 421.344C477.163 425.749 475.875 429.333 473.299 432.096C470.76 434.821 467.568 436.184 463.723 436.184C461.259 436.184 459.037 435.493 457.059 434.112C456.163 433.477 455.397 432.768 454.763 431.984H454.483V435.624H448.603ZM456.667 414.344C455.211 415.986 454.483 418.32 454.483 421.344C454.483 424.368 455.211 426.72 456.667 428.4C458.16 430.042 460.139 430.864 462.603 430.864C465.216 430.864 467.269 430.042 468.763 428.4C470.256 426.757 471.003 424.405 471.003 421.344C471.003 418.282 470.256 415.93 468.763 414.288C467.269 412.645 465.216 411.824 462.603 411.824C460.139 411.824 458.16 412.664 456.667 414.344ZM480.669 401.856C479.997 401.184 479.661 400.362 479.661 399.392C479.661 398.421 479.997 397.6 480.669 396.928C481.341 396.218 482.162 395.864 483.133 395.864C484.104 395.864 484.925 396.218 485.597 396.928C486.306 397.6 486.661 398.421 486.661 399.392C486.661 400.362 486.306 401.184 485.597 401.856C484.925 402.528 484.104 402.864 483.133 402.864C482.162 402.864 481.341 402.528 480.669 401.856ZM480.221 435.624V407.064H486.101V435.624H480.221ZM490.839 435.624V407.064H496.719V410.984H496.999C497.447 410.237 498.138 409.49 499.071 408.744C501.087 407.25 503.383 406.504 505.959 406.504C509.506 406.504 512.25 407.53 514.191 409.584C516.17 411.637 517.159 414.624 517.159 418.544V435.624H511.279V419.104C511.279 416.602 510.719 414.773 509.599 413.616C508.516 412.421 506.836 411.824 504.559 411.824C502.282 411.824 500.396 412.608 498.903 414.176C497.447 415.706 496.719 417.722 496.719 420.224V435.624H490.839ZM523.765 432.096C521.226 429.333 519.957 425.749 519.957 421.344C519.957 416.938 521.226 413.373 523.765 410.648C526.341 407.885 529.552 406.504 533.397 406.504C535.824 406.504 538.045 407.213 540.061 408.632C540.92 409.229 541.685 409.92 542.357 410.704H542.637V396.424H548.517V435.624H542.637V431.984H542.357C541.722 432.768 540.957 433.477 540.061 434.112C538.082 435.493 535.861 436.184 533.397 436.184C529.552 436.184 526.341 434.821 523.765 432.096ZM528.357 414.288C526.864 415.93 526.117 418.282 526.117 421.344C526.117 424.405 526.864 426.757 528.357 428.4C529.85 430.042 531.904 430.864 534.517 430.864C536.981 430.864 538.941 430.042 540.397 428.4C541.89 426.72 542.637 424.368 542.637 421.344C542.637 418.32 541.89 415.986 540.397 414.344C538.941 412.664 536.981 411.824 534.517 411.824C531.904 411.824 529.85 412.645 528.357 414.288ZM553.703 401.856C553.031 401.184 552.695 400.362 552.695 399.392C552.695 398.421 553.031 397.6 553.703 396.928C554.375 396.218 555.196 395.864 556.167 395.864C557.138 395.864 557.959 396.218 558.631 396.928C559.34 397.6 559.695 398.421 559.695 399.392C559.695 400.362 559.34 401.184 558.631 401.856C557.959 402.528 557.138 402.864 556.167 402.864C555.196 402.864 554.375 402.528 553.703 401.856ZM553.255 435.624V407.064H559.135V435.624H553.255ZM563.873 435.624V407.064H569.753V410.984H570.033C570.481 410.237 571.172 409.49 572.105 408.744C574.121 407.25 576.417 406.504 578.993 406.504C582.54 406.504 585.284 407.53 587.225 409.584C589.204 411.637 590.193 414.624 590.193 418.544V435.624H584.313V419.104C584.313 416.602 583.753 414.773 582.633 413.616C581.55 412.421 579.87 411.824 577.593 411.824C575.316 411.824 573.43 412.608 571.937 414.176C570.481 415.706 569.753 417.722 569.753 420.224V435.624H563.873ZM596.799 432.096C594.26 429.333 592.991 425.749 592.991 421.344C592.991 416.938 594.26 413.373 596.799 410.648C599.375 407.885 602.586 406.504 606.431 406.504C608.858 406.504 611.079 407.213 613.095 408.632C613.991 409.266 614.756 409.976 615.391 410.76H615.671V407.064H621.551V446.264H597.191V440.944H615.671V431.984H615.391C614.756 432.768 613.991 433.477 613.095 434.112C611.116 435.493 608.895 436.184 606.431 436.184C602.586 436.184 599.375 434.821 596.799 432.096ZM601.391 414.288C599.898 415.93 599.151 418.282 599.151 421.344C599.151 424.405 599.898 426.757 601.391 428.4C602.884 430.042 604.938 430.864 607.551 430.864C610.015 430.864 611.975 430.042 613.431 428.4C614.924 426.72 615.671 424.368 615.671 421.344C615.671 418.32 614.924 415.986 613.431 414.344C611.975 412.664 610.015 411.824 607.551 411.824C604.938 411.824 602.884 412.645 601.391 414.288ZM624.329 426.664H630.769C631.03 427.41 631.497 428.12 632.169 428.792C633.55 430.173 635.417 430.864 637.769 430.864C639.822 430.864 641.316 430.546 642.249 429.912C643.182 429.277 643.649 428.474 643.649 427.504C643.649 427.168 643.574 426.869 643.425 426.608C643.276 426.309 643.014 426.048 642.641 425.824C642.268 425.6 641.913 425.413 641.577 425.264C641.241 425.077 640.737 424.909 640.065 424.76C639.393 424.573 638.852 424.442 638.441 424.368C638.03 424.256 637.396 424.106 636.537 423.92C635.716 423.733 635.1 423.602 634.689 423.528C628.716 422.184 625.729 419.309 625.729 414.904C625.729 412.664 626.756 410.704 628.809 409.024C630.862 407.344 633.569 406.504 636.929 406.504C641.596 406.504 645.086 407.997 647.401 410.984C648.446 412.29 649.156 413.784 649.529 415.464H643.369C643.07 414.717 642.66 414.12 642.137 413.672C640.83 412.44 639.094 411.824 636.929 411.824C635.249 411.824 633.98 412.122 633.121 412.72C632.3 413.317 631.889 414.064 631.889 414.96C631.889 415.296 631.964 415.613 632.113 415.912C632.262 416.173 632.524 416.416 632.897 416.64C633.27 416.864 633.625 417.05 633.961 417.2C634.334 417.349 634.838 417.517 635.473 417.704C636.108 417.853 636.649 417.984 637.097 418.096C637.545 418.17 638.161 418.301 638.945 418.488C639.766 418.637 640.401 418.768 640.849 418.88C646.822 420.224 649.809 423.098 649.809 427.504C649.809 429.893 648.726 431.946 646.561 433.664C644.433 435.344 641.502 436.184 637.769 436.184C632.916 436.184 629.201 434.597 626.625 431.424C625.468 429.968 624.702 428.381 624.329 426.664ZM664.371 412.384V407.064H667.731V396.424H682.011V401.744H673.611V407.064H680.331V412.384H673.611V435.624H667.731V412.384H664.371ZM685.438 431.928C682.601 429.053 681.182 425.525 681.182 421.344C681.182 417.162 682.601 413.653 685.438 410.816C688.313 407.941 691.841 406.504 696.022 406.504C700.204 406.504 703.713 407.941 706.55 410.816C709.425 413.653 710.862 417.162 710.862 421.344C710.862 425.525 709.425 429.053 706.55 431.928C703.713 434.765 700.204 436.184 696.022 436.184C691.841 436.184 688.313 434.765 685.438 431.928ZM689.75 414.456C688.145 416.173 687.342 418.469 687.342 421.344C687.342 424.218 688.145 426.533 689.75 428.288C691.356 430.005 693.446 430.864 696.022 430.864C698.598 430.864 700.689 430.005 702.294 428.288C703.9 426.533 704.702 424.218 704.702 421.344C704.702 418.469 703.9 416.173 702.294 414.456C700.689 412.701 698.598 411.824 696.022 411.824C693.446 411.824 691.356 412.701 689.75 414.456ZM713.933 435.624V407.064H719.813V411.264H720.093C720.504 410.48 721.101 409.733 721.885 409.024C723.603 407.53 725.619 406.784 727.933 406.784H731.293V412.384H727.653C725.376 412.384 723.491 413.112 721.997 414.568C720.541 415.986 719.813 417.872 719.813 420.224V435.624H713.933ZM748.089 435.624V396.424H765.169C769.798 396.424 773.476 397.618 776.201 400.008C778.926 402.397 780.289 405.402 780.289 409.024C780.289 411.898 779.393 414.437 777.601 416.64C775.846 418.805 773.382 420.28 770.209 421.064L780.009 435.624H772.449L763.209 421.624H754.529V435.624H748.089ZM754.529 415.464H765.169C770.769 415.464 773.569 413.317 773.569 409.024C773.569 404.73 770.769 402.584 765.169 402.584H754.529V415.464ZM785.659 431.928C782.859 429.053 781.459 425.525 781.459 421.344C781.459 417.162 782.859 413.653 785.659 410.816C788.497 407.941 791.95 406.504 796.019 406.504C800.089 406.504 803.523 407.941 806.323 410.816C809.161 413.653 810.579 417.162 810.579 421.344V423.304H787.339C787.787 425.656 788.814 427.504 790.419 428.848C792.025 430.192 793.891 430.864 796.019 430.864C798.633 430.864 800.723 430.21 802.291 428.904C803.001 428.381 803.617 427.728 804.139 426.944H810.299C809.515 428.773 808.526 430.322 807.331 431.592C804.27 434.653 800.499 436.184 796.019 436.184C791.95 436.184 788.497 434.765 785.659 431.928ZM787.619 418.544H804.419C804.083 416.677 803.187 415.09 801.731 413.784C800.313 412.477 798.409 411.824 796.019 411.824C794.003 411.824 792.211 412.44 790.643 413.672C789.075 414.866 788.067 416.49 787.619 418.544ZM815.792 432.096C813.253 429.333 811.984 425.749 811.984 421.344C811.984 416.938 813.253 413.373 815.792 410.648C818.368 407.885 821.578 406.504 825.424 406.504C827.85 406.504 830.072 407.213 832.088 408.632C832.946 409.229 833.712 409.92 834.384 410.704H834.664V407.064H840.544V435.624H834.664V431.704H834.384C833.824 432.488 833.058 433.234 832.088 433.944C830.072 435.437 827.85 436.184 825.424 436.184C821.578 436.184 818.368 434.821 815.792 432.096ZM820.384 414.288C818.89 415.93 818.144 418.282 818.144 421.344C818.144 424.405 818.89 426.757 820.384 428.4C821.877 430.042 823.93 430.864 826.544 430.864C829.008 430.864 830.968 430.042 832.424 428.4C833.917 426.72 834.664 424.368 834.664 421.344C834.664 418.32 833.917 415.986 832.424 414.344C830.968 412.664 829.008 411.824 826.544 411.824C823.93 411.824 821.877 412.645 820.384 414.288ZM847.69 431.984C844.965 429.184 843.602 425.637 843.602 421.344C843.602 417.05 844.965 413.504 847.69 410.704C850.415 407.904 853.813 406.504 857.882 406.504C862.437 406.504 866.151 408.24 869.026 411.712C870.258 413.317 871.117 415.034 871.602 416.864H865.442C865.181 415.93 864.695 415.09 863.986 414.344C862.53 412.664 860.495 411.824 857.882 411.824C855.567 411.824 853.626 412.701 852.058 414.456C850.527 416.21 849.762 418.506 849.762 421.344C849.762 424.181 850.527 426.477 852.058 428.232C853.626 429.986 855.567 430.864 857.882 430.864C860.57 430.864 862.679 430.024 864.21 428.344C864.882 427.597 865.386 426.757 865.722 425.824H871.602C871.117 427.728 870.258 429.464 869.026 431.032C866.189 434.466 862.474 436.184 857.882 436.184C853.813 436.184 850.415 434.784 847.69 431.984ZM872.144 412.384V407.064H875.504V400.904H881.384V407.064H890.064V412.384H881.384V430.304H890.344V435.624H875.504V412.384H872.144ZM906.04 416.024C906.04 410.125 908.037 405.197 912.032 401.24C916.026 397.282 921.029 395.304 927.04 395.304C933.05 395.304 938.053 397.282 942.048 401.24C946.042 405.197 948.04 410.125 948.04 416.024C948.04 421.325 946.397 425.898 943.112 429.744C939.826 433.552 935.589 435.792 930.4 436.464V446.824H923.96V436.464C918.696 435.792 914.384 433.552 911.024 429.744C907.701 425.898 906.04 421.325 906.04 416.024ZM916.736 405.496C914.085 408.184 912.76 411.693 912.76 416.024C912.76 420.354 914.085 423.864 916.736 426.552C919.386 429.24 922.821 430.584 927.04 430.584C931.221 430.584 934.637 429.24 937.288 426.552C939.976 423.864 941.32 420.354 941.32 416.024C941.32 411.693 939.976 408.184 937.288 405.496C934.637 402.808 931.221 401.464 927.04 401.464C922.821 401.464 919.386 402.808 916.736 405.496ZM951.684 424.144V407.064H957.564V423.584C957.564 426.085 958.105 427.933 959.188 429.128C960.308 430.285 962.007 430.864 964.284 430.864C966.561 430.864 968.428 430.098 969.884 428.568C971.377 427 972.124 424.965 972.124 422.464V407.064H978.004V435.624H972.124V431.704H971.844C971.396 432.45 970.705 433.197 969.772 433.944C967.756 435.437 965.46 436.184 962.884 436.184C959.337 436.184 956.575 435.157 954.596 433.104C952.655 431.05 951.684 428.064 951.684 424.144ZM985.275 431.928C982.475 429.053 981.075 425.525 981.075 421.344C981.075 417.162 982.475 413.653 985.275 410.816C988.113 407.941 991.566 406.504 995.635 406.504C999.705 406.504 1003.14 407.941 1005.94 410.816C1008.78 413.653 1010.2 417.162 1010.2 421.344V423.304H986.955C987.403 425.656 988.43 427.504 990.035 428.848C991.641 430.192 993.507 430.864 995.635 430.864C998.249 430.864 1000.34 430.21 1001.91 428.904C1002.62 428.381 1003.23 427.728 1003.76 426.944H1009.92C1009.13 428.773 1008.14 430.322 1006.95 431.592C1003.89 434.653 1000.12 436.184 995.635 436.184C991.566 436.184 988.113 434.765 985.275 431.928ZM987.235 418.544H1004.04C1003.7 416.677 1002.8 415.09 1001.35 413.784C999.929 412.477 998.025 411.824 995.635 411.824C993.619 411.824 991.827 412.44 990.259 413.672C988.691 414.866 987.683 416.49 987.235 418.544ZM1013.28 435.624V407.064H1019.16V411.264H1019.44C1019.85 410.48 1020.45 409.733 1021.23 409.024C1022.95 407.53 1024.97 406.784 1027.28 406.784H1030.64V412.384H1027C1024.72 412.384 1022.84 413.112 1021.34 414.568C1019.89 415.986 1019.16 417.872 1019.16 420.224V435.624H1013.28ZM1030.34 407.064H1036.5L1042.66 430.024H1045.74L1052.46 407.064H1058.62L1046.86 446.264H1040.7L1044.06 435.624H1038.18L1030.34 407.064Z" fill="#0E0E0E"/>
<g clip-path="url(#clip0)">
<g filter="url(#filter0_i)">
<path d="M701.152 244.888C701.152 227.445 701.152 218.728 705.593 212.61C707.029 210.636 708.766 208.899 710.741 207.463C716.852 203.022 725.575 203.022 743.015 203.022H789.974C807.417 203.022 816.134 203.022 822.252 207.463C824.226 208.898 825.962 210.635 827.396 212.61C831.839 218.724 831.839 227.445 831.839 244.888V291.845C831.839 309.288 831.839 318.005 827.396 324.122C825.963 326.097 824.227 327.834 822.252 329.267C816.138 333.711 807.417 333.711 789.974 333.711H743.015C725.575 333.711 716.855 333.711 710.741 329.267C708.765 327.833 707.028 326.097 705.593 324.122C701.152 318.009 701.152 309.288 701.152 291.845V244.888Z" fill="#DD1350"/>
</g>
<g filter="url(#filter1_di)">
<path d="M789.712 265.261C798.281 265.261 805.229 258.314 805.229 249.745C805.229 241.175 798.281 234.228 789.712 234.228C781.142 234.228 774.195 241.175 774.195 249.745C774.195 258.314 781.142 265.261 789.712 265.261Z" fill="#FBFBFB"/>
</g>
<path d="M736.394 248.884C736.394 243.959 736.394 241.495 737.356 239.61C738.198 237.953 739.544 236.605 741.2 235.761C743.082 234.804 745.546 234.804 750.474 234.804L761.715 233.71L762.792 234.804V291.992C762.792 296.091 762.495 297.934 761.824 299.549C761.382 300.616 760.734 301.586 759.917 302.403C759.1 303.22 758.13 303.868 757.062 304.31C755.446 304.98 753.693 305.188 749.595 305.188C745.496 305.188 743.445 305.188 741.83 304.518C740.763 304.076 739.793 303.428 738.976 302.611C738.159 301.795 737.51 300.824 737.068 299.757C736.398 298.141 736.398 296.09 736.398 291.992L736.394 248.884Z" fill="#DD1350"/>
<g filter="url(#filter2_i)">
<path d="M735.297 247.784C735.297 242.858 735.297 240.394 736.259 238.51C737.101 236.852 738.447 235.504 740.104 234.66C741.986 233.703 744.449 233.703 749.378 233.703H761.696V290.891C761.696 294.991 761.696 297.042 761.025 298.656C760.583 299.724 759.935 300.694 759.118 301.511C758.301 302.328 757.331 302.976 756.263 303.418C754.647 304.088 752.597 304.088 748.498 304.088C744.399 304.088 742.349 304.088 740.734 303.418C739.666 302.976 738.696 302.328 737.879 301.511C737.062 300.694 736.414 299.724 735.971 298.656C735.301 297.041 735.301 294.99 735.301 290.891L735.297 247.784Z" fill="#FBFBFB"/>
</g>
</g>
<path d="M669.152 266.656C669.152 268.801 667.413 270.54 665.268 270.54H652.806V283.002C652.806 285.371 650.886 287.291 648.517 287.291V287.291C646.149 287.291 644.228 285.371 644.228 283.002V270.54H631.767C629.621 270.54 627.882 268.801 627.882 266.656V266.656C627.882 264.511 629.621 262.772 631.767 262.772H644.228V250.31C644.228 247.941 646.149 246.021 648.517 246.021V246.021C650.886 246.021 652.806 247.941 652.806 250.31V262.772H665.268C667.413 262.772 669.152 264.511 669.152 266.656V266.656Z" fill="#0E0E0E"/>
<path d="M565.057 233.783C567.466 222.114 567.983 213.164 566.426 206.665C565.5 202.8 563.807 199.646 561.232 197.371C558.514 194.97 555.077 193.791 551.216 193.791C544.846 193.791 538.149 196.693 530.992 202.206C528.073 204.454 525.044 207.164 521.897 210.338C521.647 210.016 521.364 209.712 521.049 209.431C512.153 201.513 504.664 196.593 498.259 194.696C494.45 193.568 490.874 193.461 487.618 194.555C484.181 195.711 481.442 198.099 479.51 201.445C476.321 206.967 475.48 214.222 476.669 223.181C477.153 226.832 477.982 230.81 479.152 235.12C478.711 235.173 478.268 235.271 477.83 235.416C466.544 239.152 458.552 243.17 453.714 247.761C450.835 250.493 448.955 253.535 448.275 256.901C447.558 260.455 448.258 264.019 450.188 267.362C453.371 272.876 459.223 277.224 467.561 280.669C470.909 282.052 474.697 283.304 478.929 284.431C478.736 284.866 478.587 285.329 478.486 285.814C476.077 297.483 475.56 306.434 477.117 312.933C478.044 316.798 479.737 319.951 482.311 322.226C485.03 324.628 488.466 325.807 492.328 325.807C498.698 325.807 505.395 322.905 512.551 317.392C515.501 315.12 518.564 312.376 521.747 309.158C522.074 309.67 522.476 310.146 522.951 310.569C531.847 318.487 539.336 323.407 545.741 325.304C549.55 326.432 553.126 326.539 556.382 325.445C559.819 324.289 562.558 321.901 564.49 318.555C567.679 313.033 568.52 305.778 567.331 296.819C566.829 293.036 565.958 288.902 564.719 284.411C565.203 284.362 565.69 284.26 566.17 284.101C577.456 280.365 585.448 276.347 590.286 271.756C593.165 269.024 595.045 265.982 595.725 262.616C596.442 259.062 595.742 255.498 593.812 252.155C590.629 246.641 584.777 242.293 576.439 238.848C572.991 237.424 569.077 236.138 564.691 234.986C564.847 234.604 564.971 234.202 565.057 233.783Z" fill="#002C4B"/>
<path fill-rule="evenodd" clip-rule="evenodd" d="M510.625 235.853H533.379C534.774 235.853 536.063 236.599 536.757 237.809L548.155 257.672C548.844 258.873 548.844 260.348 548.155 261.549L536.757 281.412C536.063 282.622 534.774 283.368 533.379 283.368H510.625C509.23 283.368 507.941 282.622 507.247 281.412L495.849 261.549C495.16 260.348 495.16 258.873 495.849 257.672L507.247 237.809C507.941 236.599 509.23 235.853 510.625 235.853ZM530.559 240.742C531.955 240.742 533.244 241.489 533.938 242.7L542.52 257.674C543.207 258.873 543.207 260.348 542.52 261.547L533.938 276.521C533.244 277.732 531.955 278.479 530.559 278.479H513.445C512.049 278.479 510.76 277.732 510.066 276.521L501.484 261.547C500.797 260.348 500.797 258.873 501.484 257.674L510.066 242.7C510.76 241.489 512.049 240.742 513.445 240.742H530.559ZM527.515 246.089H516.488C515.094 246.089 513.806 246.835 513.111 248.044L507.581 257.67C506.891 258.872 506.891 260.349 507.581 261.551L513.111 271.177C513.806 272.386 515.094 273.132 516.488 273.132H527.515C528.91 273.132 530.198 272.386 530.893 271.177L536.423 261.551C537.113 260.349 537.113 258.872 536.423 257.67L530.893 248.044C530.198 246.835 528.91 246.089 527.515 246.089ZM524.585 251.207C525.979 251.207 527.266 251.952 527.961 253.16L530.556 257.668C531.248 258.871 531.248 260.351 530.556 261.553L527.961 266.062C527.266 267.269 525.979 268.014 524.585 268.014H519.418C518.025 268.014 516.738 267.269 516.043 266.062L513.448 261.553C512.756 260.351 512.756 258.871 513.448 257.668L516.043 253.16C516.738 251.952 518.025 251.207 519.418 251.207H524.585ZM522.003 256.249C520.8 256.249 519.69 256.89 519.089 257.93C518.488 258.97 518.488 260.251 519.089 261.291C519.69 262.331 520.8 262.972 522.001 262.972C523.204 262.972 524.314 262.331 524.915 261.291C525.516 260.251 525.516 258.97 524.915 257.93C524.314 256.89 523.204 256.249 522.003 256.249ZM494.737 259.611H500.787Z" fill="#FFD94C"/>
<path fill-rule="evenodd" clip-rule="evenodd" d="M490.733 270.405C491.755 269.821 493.051 270.184 493.629 271.216L493.999 271.874C496.962 277.124 500.048 282.107 503.259 286.823C507.05 292.393 511.314 298.031 516.051 303.739C516.794 304.635 516.691 305.967 515.82 306.735L515.343 307.153C499.68 320.838 489.501 323.572 484.804 315.354C480.21 307.315 481.872 292.702 489.792 271.515C489.967 271.045 490.3 270.652 490.733 270.405ZM557.469 286.517C558.6 286.317 559.682 287.062 559.903 288.193L560.023 288.81C563.894 309.07 561.168 319.2 551.846 319.2C542.728 319.2 531.12 310.561 517.025 293.282C516.712 292.899 516.543 292.418 516.547 291.922C516.558 290.753 517.51 289.814 518.675 289.824L519.418 289.829C525.354 289.862 531.125 289.656 536.73 289.212C543.35 288.687 550.263 287.789 557.469 286.517ZM562.824 243.496C563.231 242.398 564.459 241.822 565.586 242.2L566.199 242.408C586.328 249.264 593.977 256.8 589.144 265.014C584.417 273.048 570.672 278.898 547.909 282.561C547.404 282.642 546.886 282.547 546.445 282.293C545.405 281.691 545.058 280.376 545.671 279.355L546.061 278.703C549.167 273.489 551.975 268.299 554.484 263.135C557.446 257.036 560.226 250.49 562.824 243.496ZM496.091 237.439C496.596 237.358 497.114 237.453 497.555 237.707C498.595 238.309 498.942 239.624 498.329 240.645L497.939 241.297C494.833 246.511 492.025 251.701 489.516 256.865C486.554 262.964 483.774 269.51 481.176 276.504C480.769 277.602 479.541 278.178 478.414 277.8L477.801 277.592C457.672 270.736 450.023 263.2 454.856 254.986C459.583 246.952 473.328 241.102 496.091 237.439ZM528.657 212.847C544.32 199.162 554.499 196.428 559.196 204.646C563.79 212.685 562.128 227.298 554.208 248.485C554.033 248.955 553.7 249.348 553.267 249.595C552.245 250.179 550.949 249.816 550.371 248.784L550.001 248.126C547.038 242.876 543.952 237.893 540.741 233.177C536.95 227.607 532.686 221.969 527.949 216.261C527.206 215.365 527.309 214.033 528.18 213.265L528.657 212.847ZM492.933 200.021C502.051 200.021 513.658 208.66 527.754 225.939C528.067 226.322 528.236 226.803 528.232 227.299C528.221 228.468 527.269 229.407 526.104 229.397L525.361 229.392C519.425 229.359 513.654 229.565 508.048 230.01C501.429 230.534 494.516 231.432 487.31 232.705C486.179 232.904 485.097 232.159 484.876 231.028L484.756 230.411C480.885 210.151 483.611 200.021 492.933 200.021Z" fill="#FF4154"/>
<defs>
<filter id="filter0_i" x="701.152" y="202.147" width="130.687" height="131.563" filterUnits="userSpaceOnUse" color-interpolation-filters="sRGB">
<feFlood flood-opacity="0" result="BackgroundImageFix"/>
<feBlend mode="normal" in="SourceGraphic" in2="BackgroundImageFix" result="shape"/>
<feColorMatrix in="SourceAlpha" type="matrix" values="0 0 0 0 0 0 0 0 0 0 0 0 0 0 0 0 0 0 127 0" result="hardAlpha"/>
<feOffset dy="-0.874915"/>
<feGaussianBlur stdDeviation="0.874915"/>
<feComposite in2="hardAlpha" operator="arithmetic" k2="-1" k3="1"/>
<feColorMatrix type="matrix" values="0 0 0 0 0 0 0 0 0 0 0 0 0 0 0 0 0 0 0.2 0"/>
<feBlend mode="normal" in2="shape" result="effect1_innerShadow"/>
</filter>
<filter id="filter1_di" x="772.445" y="231.603" width="35.9823" height="36.8573" filterUnits="userSpaceOnUse" color-interpolation-filters="sRGB">
<feFlood flood-opacity="0" result="BackgroundImageFix"/>
<feColorMatrix in="SourceAlpha" type="matrix" values="0 0 0 0 0 0 0 0 0 0 0 0 0 0 0 0 0 0 127 0" result="hardAlpha"/>
<feOffset dx="1.10823" dy="1.10823"/>
<feGaussianBlur stdDeviation="1.04551"/>
<feColorMatrix type="matrix" values="0 0 0 0 0 0 0 0 0 0 0 0 0 0 0 0 0 0 0.15 0"/>
<feBlend mode="normal" in2="BackgroundImageFix" result="effect1_dropShadow"/>
<feBlend mode="normal" in="SourceGraphic" in2="effect1_dropShadow" result="shape"/>
<feColorMatrix in="SourceAlpha" type="matrix" values="0 0 0 0 0 0 0 0 0 0 0 0 0 0 0 0 0 0 127 0" result="hardAlpha"/>
<feOffset dx="-1.74984" dy="-2.62475"/>
<feGaussianBlur stdDeviation="2.21646"/>
<feComposite in2="hardAlpha" operator="arithmetic" k2="-1" k3="1"/>
<feColorMatrix type="matrix" values="0 0 0 0 0.321804 0 0 0 0 0.309804 0 0 0 0 0.909804 0 0 0 0.25 0"/>
<feBlend mode="normal" in2="shape" result="effect2_innerShadow"/>
</filter>
<filter id="filter2_i" x="733.546" y="231.078" width="28.1499" height="73.0095" filterUnits="userSpaceOnUse" color-interpolation-filters="sRGB">
<feFlood flood-opacity="0" result="BackgroundImageFix"/>
<feBlend mode="normal" in="SourceGraphic" in2="BackgroundImageFix" result="shape"/>
<feColorMatrix in="SourceAlpha" type="matrix" values="0 0 0 0 0 0 0 0 0 0 0 0 0 0 0 0 0 0 127 0" result="hardAlpha"/>
<feOffset dx="-1.75101" dy="-2.62475"/>
<feGaussianBlur stdDeviation="2.21646"/>
<feComposite in2="hardAlpha" operator="arithmetic" k2="-1" k3="1"/>
<feColorMatrix type="matrix" values="0 0 0 0 0.321804 0 0 0 0 0.309804 0 0 0 0 0.909804 0 0 0 0.25 0"/>
<feBlend mode="normal" in2="shape" result="effect1_innerShadow"/>
</filter>
<clipPath id="clip0">
<rect width="130.688" height="130.688" fill="white" transform="translate(701.152 202)"/>
</clipPath>
</defs>
</svg>
